<?xml version="1.0" encoding="UTF-8" standalone="no"?>
<svg 
    role="img" 
    xmlns="http://www.w3.org/2000/svg" 
    width="58px"
    height="58px"
    viewBox="0 0 1000 1000"
    style="max-width:1.6em; height: auto;">
    
    <path 
        id="path" 
        style="opacity:1;vector-effect:none;fill:#10a79c;fill-opacity:1;"
        d="M 500 0C 224 0 0 224 0 500C 0 776 224 1000 500 1000C 776 1000 1000 776 1000 500C 1000 224 776 0 500 0C 500 0 500 0 500 0M 500 50C 749 50 950 251 950 500C 950 749 749 950 500 950C 251 950 50 749 50 500C 50 251 251 50 500 50C 500 50 500 50 500 50 M 165 565C 165 565 465 265 465 265C 484 245 516 245 535 265C 535 265 835 565 835 565C 855 584 856 616 836 636C 816 656 784 655 765 635C 765 635 500 371 500 371C 500 371 235 635 235 635C 221 650 200 655 181 647C 162 639 150 621 150 601C 150 587 155 574 165 565C 165 565 165 565 165 565"
        transform="rotate(180,500,500)">
    </path>    
</svg>