<?xml version="1.0" encoding="UTF-8" standalone="no"?>
<svg 
    role="img" 
    xmlns="http://www.w3.org/2000/svg" 
    width="32px"
    height="32px"
    viewBox="0 0 1000 1000"
    style="max-width:1.6em; height: auto;">
    
    <path 
        id="path" 
        style="opacity:1;vector-effect:none;fill:#e4e4e4;fill-opacity:1;"
        d=" M 357 501C 357 501 627 231 627 231C 653 207 675 180 702 159C 729 154 758 158 785 157C 805 158 836 150 842 177C 844 213 843 250 843 286C 841 306 851 335 828 346C 798 351 767 347 737 348C 737 363 737 379 737 394C 735 415 744 445 718 453C 695 454 672 445 649 442C 647 460 652 479 644 496C 598 544 549 591 502 639C 528 728 481 828 400 871C 317 917 202 893 146 815C 86 739 94 621 163 554C 213 503 289 483 357 501C 357 501 357 501 357 501M 242 772C 275 796 326 765 320 725C 318 684 262 664 234 694C 212 715 216 755 242 772C 242 772 242 772 242 772"
        transform="">
    </path>    
</svg>