<?xml version="1.0" encoding="UTF-8" standalone="no"?>
<svg 
    role="img" 
    xmlns="http://www.w3.org/2000/svg" 
    width="14px"
    height="14px"
    viewBox="0 0 1000 1000"
    style="max-width:1.6em; height: auto;">
    
    <path 
        id="path" 
        style="opacity:1;vector-effect:none;fill:#000000;fill-opacity:1;"
        d=" M 253 677C 242 666 242 652 253 641C 253 641 394 500 394 500C 394 500 253 359 253 359C 242 348 242 334 253 323C 253 323 323 253 323 253C 334 242 348 242 359 253C 359 253 500 394 500 394C 500 394 641 253 641 253C 652 242 666 242 677 253C 677 253 747 323 747 323C 758 334 758 348 747 359C 747 359 606 500 606 500C 606 500 747 641 747 641C 758 652 758 666 747 677C 747 677 677 747 677 747C 666 758 652 758 641 747C 641 747 500 606 500 606C 500 606 359 747 359 747C 348 758 334 758 323 747C 323 747 253 677 253 677"
        transform="">
    </path>    
</svg>