<?xml version="1.0" standalone="no"?>
<!DOCTYPE svg PUBLIC "-//W3C//DTD SVG 20010904//EN"
 "http://www.w3.org/TR/2001/REC-SVG-20010904/DTD/svg10.dtd">
<svg version="1.0" xmlns="http://www.w3.org/2000/svg"
 width="157.000000pt" height="42.000000pt" viewBox="0 0 157.000000 42.000000"
 preserveAspectRatio="xMidYMid meet">

<g transform="translate(0.000000,42.000000) scale(0.100000,-0.100000)"
fill="#000000" stroke="none">
<path d="M106 325 c-55 -33 -80 -77 -80 -140 0 -64 31 -118 85 -145 45 -23 84
-27 76 -7 -3 8 -1 20 4 28 6 10 9 7 9 -13 0 -35 20 -36 75 -5 56 31 88 95 81
160 -6 58 -31 95 -85 125 -40 22 -41 23 -41 4 0 -16 -8 -21 -41 -24 -37 -3
-40 -2 -34 19 7 29 0 28 -49 -2z m84 -66 c0 -11 -4 -17 -10 -14 -5 3 -10 13
-10 21 0 8 5 14 10 14 6 0 10 -9 10 -21z m50 1 c0 -11 -4 -20 -10 -20 -5 0
-10 9 -10 20 0 11 5 20 10 20 6 0 10 -9 10 -20z m4 -60 c17 -16 -7 -30 -52
-30 -55 0 -75 10 -66 33 5 15 15 16 58 11 28 -4 55 -10 60 -14z m-75 -148 l-1
-27 -8 30 c-4 17 -8 22 -9 13 0 -9 -6 -20 -13 -24 -6 -4 -9 -3 -6 2 3 5 8 17
11 27 10 26 27 11 26 -21z m61 23 l1 20 9 -20 c12 -28 12 -37 0 -30 -5 3 -10
1 -10 -5 0 -6 -4 -8 -10 -5 -5 3 -10 18 -9 33 0 24 1 25 9 7 l9 -20 1 20z"/>
</g>
</svg>
